<svg id="Layer_1" enable-background="new 0 0 512 512" height="512" viewBox="0 0 512 512" width="512" xmlns="http://www.w3.org/2000/svg"><g><g><path d="m73.423 4.489c-27.913 0-50.54 22.628-50.54 50.54v205.745h56.029s22.856-227.939-5.489-256.285z" fill="#ad0551"/></g><g><path d="m73.423 4.489v256.285h50.54v-205.744c.001-27.913-22.627-50.541-50.54-50.541z" fill="#7f244b"/></g><g><path d="m23.571 260.774v200.228l50.54 46.509 7.97-46.509v-200.228z" fill="#d0e8ff"/></g><g><path d="m73.423 260.774.001 246.737 50.54-46.509v-200.228z" fill="#9dcfff"/></g><g><path d="m354.89 260.489c0 95.044-14.982 172.092-14.982 172.092-95.044 0-172.092-77.048-172.092-172.092s77.049-172.091 172.092-172.091c0 0 14.982 77.048 14.982 172.091z" fill="#fcbe00"/><path d="m339.909 88.398v172.092c95.044 0 116.036 20.317 172.091 0 0-95.044-77.048-172.092-172.091-172.092z" fill="#ad0551"/><path d="m167.817 260.489c0 95.044 77.048 172.092 172.092 172.092 20.316-65.999 0-77.048 0-172.092z" fill="#009854"/><path d="m339.908 260.489v172.092c95.044 0 172.091-77.048 172.091-172.092z" fill="#3e34c2"/></g><g><path d="m354.89 260.489c0 58.593-14.982 106.092-14.982 106.092-58.593 0-106.092-47.499-106.092-106.092s47.499-106.092 106.092-106.092c9.62 10.063 14.982 47.499 14.982 106.092z" fill="#ffd92e"/><path d="m339.908 154.397v106.092c58.593 0 63.735 11.219 106.092 0 .001-58.593-47.498-106.092-106.092-106.092z" fill="#e20a6c"/><path d="m233.816 260.489c0 58.593 47.499 106.092 106.092 106.092 20.316-70.905 0-47.499 0-106.092z" fill="#7ee780"/><path d="m339.908 260.489v106.092c58.593 0 106.092-47.499 106.092-106.092z" fill="#554cce"/></g><g><path d="m354.89 260.489c0 22.441-14.982 40.633-14.982 40.633-22.441 0-40.633-18.192-40.633-40.633s18.192-40.633 40.633-40.633c0 0 14.982 18.192 14.982 40.633z" fill="#ffea94"/><path d="m339.908 219.856v40.633c22.441 0 40.633 22.441 40.633 0s-18.192-40.633-40.633-40.633z" fill="#ff3980"/><path d="m299.275 260.489c0 22.441 18.192 40.633 40.633 40.633 9.974-23.019 0-18.192 0-40.633z" fill="#b0eeae"/><path d="m339.908 260.489v40.633c22.441 0 40.633-18.192 40.633-40.633z" fill="#6e67d5"/></g><g><g><g><path d="m22.883 184.789h59.198v75.7h-59.198z" fill="#ff3980"/></g><g><path d="m73.424 184.789h50.54v75.7h-50.54z" fill="#e20a6c"/></g></g></g><g><path d="m0 245.489h82.081v30h-82.081z" fill="#ad0551"/></g><g><path d="m73.424 245.489h73.423v30h-73.423z" fill="#7f244b"/></g></g></svg>